<svg id="Layer_3" enable-background="new 0 0 64 64" height="48" viewBox="0 0 64 64" width="48" xmlns="http://www.w3.org/2000/svg"> <path d="m62 57h-1v-41c0-.552-.448-1-1-1h-13.051c-.518-7.805-7.016-14-14.949-14s-14.431 6.195-14.949 14h-13.051c-.552 0-1 .448-1 1v41h-1c-.552 0-1 .447-1 1v4c0 .553.448 1 1 1h60c.552 0 1-.447 1-1v-4c0-.553-.448-1-1-1zm-21 0v-4h18v4zm-9-26c5.743 0 10.737-3.248 13.256-8h13.744v28h-18v-15c0-.553-.448-1-1-1h-16c-.552 0-1 .447-1 1v15h-18v-28h13.744c2.519 4.752 7.513 8 13.256 8zm-7 18h2v2h-2zm0 4h3c.552 0 1-.447 1-1v-4c0-.553-.448-1-1-1h-3v-10h14v20h-14zm34-32h-12.875c.449-1.265.732-2.605.825-4h12.05zm-27-18c7.168 0 13 5.832 13 13s-5.832 13-13 13-13-5.832-13-13 5.832-13 13-13zm-14.949 14c.093 1.395.375 2.735.825 4h-12.876v-4zm-12.051 36h18v4h-18zm56 8h-58v-2h58z"></path> <path d="m23.757 20.97 8 2c.08.02.161.03.243.03s.163-.01.243-.03l8-2c.445-.111.757-.511.757-.97v-10c0-.308-.142-.599-.385-.788-.243-.19-.561-.257-.858-.182l-7.757 1.939-7.757-1.939c-.297-.073-.615-.007-.858.182s-.385.48-.385.788v10c0 .459.312.859.757.97zm15.243-1.751-6 1.5v-7.938l6-1.5zm-14-7.938 6 1.5v7.938l-6-1.5z"></path> <path d="m8 49h12c.552 0 1-.447 1-1v-20c0-.552-.448-1-1-1h-12c-.552 0-1 .448-1 1v20c0 .553.448 1 1 1zm1-6h2v4h-2zm6-6h-2v-4h2zm-4 0h-2v-4h2zm8 2v3h-2c0-.553-.448-1-1-1h-7v-2zm-4 4v4h-2v-4zm2 4v-3h2v3zm2-18v8h-2v-5c0-.552-.448-1-1-1h-7v-2z"></path> <path d="m44 49h12c.552 0 1-.447 1-1v-20c0-.552-.448-1-1-1h-12c-.552 0-1 .448-1 1v20c0 .553.448 1 1 1zm1-5h2v3h-2zm10-11v4h-2v-4zm-4 4h-2v-4h2zm4 2v2h-7c-.552 0-1 .447-1 1h-2v-3zm-4 4v4h-2v-4zm2 4v-4h2v4zm2-18v2h-7c-.552 0-1 .448-1 1v5h-2v-8z"></path> <path d="m36 39h-8c-.552 0-1 .447-1 1v4c0 .553.448 1 1 1h8c.552 0 1-.447 1-1v-4c0-.553-.448-1-1-1zm-1 4h-6v-2h6z"></path> </svg>